{"asset":{"version":"2.0","generator":"babylon.js glTF exporter for 3ds max 2018 v1.2.34","copyright":"2017 (c) BabylonJS"},"extensionsUsed":["KHR_lights"],"scene":0,"scenes":[{"nodes":[0,1],"extensions":{"KHR_lights":{"light":0}}}],"nodes":[{"mesh":0,"translation":[0.0,0.0,0.0],"rotation":[0.0,0.0,0.0,1.0],"scale":[1.0,1.0,1.0],"name":"GeoSphere001"},{"translation":[0.0,0.0,0.0],"rotation":[0.0,0.0,0.0,1.0],"scale":[1.0,1.0,1.0],"name":"Default light"}],"meshes":[{"primitives":[{"attributes":{"POSITION":1,"NORMAL":2,"TEXCOORD_0":3},"indices":0,"mode":4,"material":0}],"name":"GeoSphere001"}],"accessors":[{"bufferView":0,"componentType":5123,"count":540,"type":"SCALAR","name":"accessorIndices"},{"bufferView":1,"componentType":5126,"count":540,"max":[9.854557,10.0,9.83023548],"min":[-9.854556,-10.0,-9.83023548],"type":"VEC3","name":"accessorPositions"},{"bufferView":1,"byteOffset":6480,"componentType":5126,"count":540,"type":"VEC3","name":"accessorNormals"},{"bufferView":2,"componentType":5126,"count":540,"type":"VEC2","name":"accessorUVs"}],"bufferViews":[{"buffer":0,"byteLength":1080,"name":"bufferViewScalar"},{"buffer":0,"byteOffset":1080,"byteLength":12960,"byteStride":12,"name":"bufferViewFloatVec3"},{"buffer":0,"byteOffset":14040,"byteLength":4320,"byteStride":8,"name":"bufferViewFloatVec2"}],"buffers":[{"uri":"planet.bin","byteLength":18360}],"materials":[{"pbrMetallicRoughness":{"baseColorFactor":[0.4431373,0.4431373,0.7568628,1.0],"metallicFactor":0.5,"roughnessFactor":0.7},"emissiveFactor":[0.0,0.0,0.0],"alphaMode":"OPAQUE","name":"Material #25"}],"extensions":{"KHR_lights":{"lights":[{"color":[1.0,1.0,1.0],"intensity":1.0,"type":"ambient"}]}}}