<?xml version="1.0" encoding="utf-8"?>
<!-- Generator: Adobe Illustrator 22.1.0, SVG Export Plug-In . SVG Version: 6.00 Build 0)  -->
<svg version="1.1" id="Capa_1" xmlns="http://www.w3.org/2000/svg" xmlns:xlink="http://www.w3.org/1999/xlink" x="0px" y="0px"
	 viewBox="0 0 357 81" style="enable-background:new 0 0 357 81;" xml:space="preserve">
<style type="text/css">
	.st0{fill:#FFFFFF;}
</style>
<g>
	<path class="st0" d="M167.3,64.9l1.7-2.2l0,0c4.2,4.7,12.5,8.5,21.5,8.5c13.7,0,18.2-6.2,18.2-13.8c0-20.9-39.5-8.5-39.5-32.6
		c0-8.8,6.7-16.8,22.3-16.8c6.6,0,13.4,2,18.2,5.2c0.6,0.4,0.8,1.3,0.5,1.9l0,0c-0.4,0.7-1.3,1-2,0.5c-5-3.2-11.1-4.8-16.5-4.8
		c-13.2,0-19.3,6.3-19.3,14c0,21,41.1,8.8,41.1,32.5c0,8.8-7,16.7-22.7,16.7C181,74,171.8,70.2,167.3,64.9z"/>
	<path class="st0" d="M352.3,30c0,13.7-9.7,21.7-25.9,21.7h-15.8c-2,0-3.6,1.6-3.6,3.6v18.3h-3.2V10.5c0-1.2,0.9-2.1,2.1-2.1h20.5
		C342.6,8.4,352.3,16.4,352.3,30z M347.6,30c0-11.9-6.5-18.7-21.1-18.7h-15.9c-2.1,0-3.8,1.7-3.8,3.8V45c0,2.1,1.7,3.8,3.8,3.8h15.9
		C341.2,48.8,347.6,42,347.6,30z"/>
	<path class="st0" d="M94.5,46.1V8.4h3.2V46c0,16.9,8.1,22.9,22.4,22.9c14.3,0,22.4-6,22.4-22.9V8.4h3.1v37.7
		c0,18.5-9.7,27.8-25.5,27.8S94.5,64.7,94.5,46.1z"/>
	<path class="st0" d="M254,7.3L254,7.3c-1.4,0-2.6,0.8-3.2,2l-29.3,65.3h5.7l23.3-52.3c1.3-2.8,5.2-2.8,6.5,0l23.4,52.3h5.9
		L257.1,9.4C256.6,8.1,255.3,7.3,254,7.3z"/>
	<path class="st0" d="M69.4,8.4L69.4,8.4c-0.6,0-1.1,0.3-1.4,0.8L40.3,57.6c-0.8,1.3-2.7,1.3-3.4,0L9.1,9.2C8.8,8.7,8.2,8.4,7.6,8.4
		h0C6.7,8.4,6,9.1,6,10.1v63.5h3.1V21.1c0-1.7,2.2-2.3,3-0.8l25.1,43.3c0.3,0.4,0.8,0.7,1.4,0.7c0.6,0,1.1-0.3,1.4-0.7l24.4-42.4
		c1-1.8,3.7-1,3.7,1l0.1,51.4h3.1l-0.1-63.5C71.1,9.1,70.4,8.4,69.4,8.4z"/>
</g>
</svg>
